# xmcd
#
# Track frame offsets:
#	150
#	22717
#	44841
#	65763
#	86276
#	109289
#	131731
#	153282
#	175906
#	193031
#	212344
#	232407
#	250794
#	271982
#	293494
#	312095
#
# Disc length: 4404 seconds
#
# Revision: 1
# Processed by: cddbd v1.5.1PL0 Copyright (c) Steve Scherf et al.
# Submitted via: CDex 1.50Beta5
#
DISCID=e0113210
DTITLE=伍代夏子 - 伍代夏子 最新ベスト
DYEAR=2002
DGENRE=World
TTITLE0=都忘れ
TTITLE1=九十九坂
TTITLE2=満月
TTITLE3=はまなす酒場
TTITLE4=風待ち湊
TTITLE5=港恋唄
TTITLE6=憂愁平野
TTITLE7=鳴門海峡
TTITLE8=北の舟唄
TTITLE9=女のひとりごと
TTITLE10=ひとり酒
TTITLE11=恋ざんげ
TTITLE12=雪中花
TTITLE13=恋挽歌
TTITLE14=忍ぶ雨
TTITLE15=戻り川
EXTD=
EXTT0=
EXTT1=
EXTT2=
EXTT3=
EXTT4=
EXTT5=
EXTT6=
EXTT7=
EXTT8=
EXTT9=
EXTT10=
EXTT11=
EXTT12=
EXTT13=
EXTT14=
EXTT15=
PLAYORDER=
